<svg width="25" height="24" viewBox="0 0 25 24" fill="none" xmlns="http://www.w3.org/2000/svg">
<path d="M12.5023 5.8467C9.09633 5.8467 6.34904 8.594 6.34904 12C6.34904 15.406 9.09633 18.1533 12.5023 18.1533C15.9083 18.1533 18.6556 15.406 18.6556 12C18.6556 8.594 15.9083 5.8467 12.5023 5.8467ZM12.5023 16.0004C10.3013 16.0004 8.50189 14.2064 8.50189 12C8.50189 9.7936 10.2959 7.99955 12.5023 7.99955C14.7087 7.99955 16.5028 9.7936 16.5028 12C16.5028 14.2064 14.7034 16.0004 12.5023 16.0004ZM20.3426 5.595C20.3426 6.39295 19.6999 7.03024 18.9073 7.03024C18.1094 7.03024 17.4721 6.38759 17.4721 5.595C17.4721 4.80241 18.1147 4.15977 18.9073 4.15977C19.6999 4.15977 20.3426 4.80241 20.3426 5.595ZM24.418 7.05166C24.3269 5.12909 23.8878 3.42608 22.4794 2.02298C21.0763 0.619882 19.3732 0.180743 17.4507 0.0843468C15.4692 -0.0281156 9.53012 -0.0281156 7.54864 0.0843468C5.63142 0.175388 3.92842 0.614526 2.51996 2.01763C1.11151 3.42073 0.677722 5.12373 0.581326 7.0463C0.468863 9.02778 0.468863 14.9669 0.581326 16.9483C0.672366 18.8709 1.11151 20.5739 2.51996 21.977C3.92842 23.3801 5.62607 23.8193 7.54864 23.9157C9.53012 24.0281 15.4692 24.0281 17.4507 23.9157C19.3732 23.8246 21.0763 23.3855 22.4794 21.977C23.8825 20.5739 24.3216 18.8709 24.418 16.9483C24.5305 14.9669 24.5305 9.03314 24.418 7.05166ZM21.8581 19.0744C21.4404 20.1241 20.6318 20.9327 19.5768 21.3558C17.9969 21.9824 14.2482 21.8378 12.5023 21.8378C10.7565 21.8378 7.00239 21.977 5.42792 21.3558C4.37827 20.9381 3.56961 20.1294 3.14654 19.0744C2.51996 17.4946 2.66456 13.7458 2.66456 12C2.66456 10.2542 2.52532 6.50006 3.14654 4.92558C3.56426 3.87593 4.37291 3.06728 5.42792 2.6442C7.00775 2.01763 10.7565 2.16222 12.5023 2.16222C14.2482 2.16222 18.0023 2.02298 19.5768 2.6442C20.6264 3.06192 21.4351 3.87058 21.8581 4.92558C22.4847 6.50541 22.3401 10.2542 22.3401 12C22.3401 13.7458 22.4847 17.4999 21.8581 19.0744Z" fill="#565656"/>
</svg>
