<svg width="25" height="24" viewBox="0 0 25 24" fill="none" xmlns="http://www.w3.org/2000/svg">
<path d="M5.87196 24H0.896132V7.97643H5.87196V24ZM3.38137 5.79066C1.79026 5.79066 0.499695 4.47278 0.499695 2.88167C0.499695 2.1174 0.803299 1.38444 1.34372 0.844022C1.88414 0.303604 2.6171 0 3.38137 0C4.14563 0 4.8786 0.303604 5.41902 0.844022C5.95943 1.38444 6.26304 2.1174 6.26304 2.88167C6.26304 4.47278 4.97194 5.79066 3.38137 5.79066ZM24.4949 24H19.5298V16.1998C19.5298 14.3409 19.4923 11.9569 16.9427 11.9569C14.3557 11.9569 13.9593 13.9766 13.9593 16.0659V24H8.98881V7.97643H13.7611V10.1622H13.8307C14.495 8.90323 16.1177 7.57463 18.5387 7.57463C23.5745 7.57463 24.5002 10.8908 24.5002 15.198V24H24.4949Z" fill="#565656"/>
</svg>
