<svg width="31" height="24" viewBox="0 0 31 24" fill="none" xmlns="http://www.w3.org/2000/svg">
<path d="M27.2372 5.98123C27.2559 6.24372 27.2559 6.50626 27.2559 6.76875C27.2559 14.775 21.1622 24 10.0247 24C6.59341 24 3.40593 23.0062 0.72467 21.2813C1.21219 21.3375 1.68089 21.3563 2.18717 21.3563C5.01837 21.3563 7.62466 20.4 9.70592 18.7688C7.04342 18.7125 4.81216 16.9688 4.04339 14.5687C4.41843 14.625 4.7934 14.6625 5.18719 14.6625C5.73092 14.6625 6.27471 14.5874 6.78093 14.4563C4.00594 13.8937 1.92462 11.4562 1.92462 8.51249V8.43752C2.73084 8.88752 3.66842 9.16877 4.6621 9.20622C3.03084 8.1187 1.96214 6.26247 1.96214 4.16246C1.96214 3.03748 2.26208 2.00623 2.78711 1.10622C5.76838 4.78122 10.2497 7.18118 15.2746 7.44372C15.1809 6.99372 15.1246 6.52502 15.1246 6.05626C15.1246 2.71872 17.8246 0 21.1809 0C22.9246 0 24.4996 0.731248 25.6059 1.9125C26.9746 1.65001 28.2871 1.14374 29.4496 0.450003C28.9996 1.85628 28.0433 3.03754 26.7871 3.78748C28.0059 3.6563 29.1871 3.31872 30.2746 2.85002C29.4497 4.04997 28.4184 5.11868 27.2372 5.98123Z" fill="white"/>
</svg>
