<?xml version="1.0" encoding="UTF-8"?>
<svg xmlns="http://www.w3.org/2000/svg" xmlns:xlink="http://www.w3.org/1999/xlink" width="0" height="0">
<symbol id="dribble" width="20" height="20" viewBox="0 0 20 20" fill="none">
<path d="M9.6875 0C4.34578 0 0 4.34578 0 9.6875C0 15.0292 4.34578 19.375 9.6875 19.375C15.0292 19.375 19.375 15.0292 19.375 9.6875C19.375 4.34578 15.0292 0 9.6875 0ZM16.0926 4.46742C17.245 5.87547 17.9429 7.66887 17.9611 9.62191C17.6883 9.56422 14.9526 9.00934 12.1993 9.35559C11.9746 8.80711 11.7626 8.32461 11.4721 7.73004C14.5315 6.48094 15.9181 4.7034 16.0926 4.46742ZM15.1727 3.51055C15.0239 3.72254 13.7783 5.39672 10.8359 6.49957C9.48 4.00832 7.97715 1.96176 7.74844 1.65551C10.3725 1.02297 13.1377 1.70512 15.1727 3.51055ZM6.16957 2.21172C6.38773 2.5109 7.86637 4.56 9.23742 6.99723C5.36684 8.02508 1.95773 8.01027 1.58766 8.00539C2.12422 5.4377 3.85461 3.30363 6.16957 2.21172ZM1.41289 9.70012C1.41289 9.61551 1.41457 9.53129 1.41711 9.44727C1.77914 9.45469 5.78898 9.50637 9.92125 8.26969C10.1581 8.73328 10.3844 9.20387 10.5921 9.67395C7.59996 10.5167 4.88141 12.9367 3.54012 15.2328C2.21852 13.7658 1.41289 11.8254 1.41289 9.70012ZM4.60848 16.228C5.47281 14.4611 7.81855 12.1802 11.1545 11.0422C12.3162 14.0611 12.7967 16.5911 12.9197 17.3171C10.2591 18.4504 7.05977 18.1395 4.60848 16.228ZM14.3108 16.5596C14.226 16.0562 13.7856 13.6339 12.7033 10.6598C15.2963 10.2448 17.5744 10.9242 17.8575 11.0136C17.4887 13.3159 16.1671 15.3043 14.3108 16.5596Z"/>
</symbol>
<symbol id="facebook" width="10" height="19" viewBox="0 0 10 19" fill="none">
<path d="M9.34469 10.5025L9.86325 7.12348H6.62096V4.93071C6.62096 4.00627 7.07388 3.10517 8.526 3.10517H10V0.228284C10 0.228284 8.66239 0 7.38349 0C4.71337 0 2.96806 1.61841 2.96806 4.54817V7.12348H0V10.5025H2.96806V18.6711H6.62096V10.5025H9.34469Z"/>
</symbol>
<symbol id="github" width="20" height="20" viewBox="0 0 20 20" fill="none">
  <path d="M6.68952 15.7016C6.68952 15.7823 6.59677 15.8468 6.47984 15.8468C6.34677 15.8589 6.25403 15.7944 6.25403 15.7016C6.25403 15.621 6.34677 15.5565 6.46371 15.5565C6.58468 15.5444 6.68952 15.6089 6.68952 15.7016ZM5.43548 15.5202C5.40726 15.6008 5.4879 15.6935 5.60887 15.7177C5.71371 15.7581 5.83468 15.7177 5.85887 15.6371C5.88306 15.5565 5.80645 15.4637 5.68548 15.4274C5.58065 15.3992 5.46371 15.4395 5.43548 15.5202ZM7.21774 15.4516C7.10081 15.4798 7.02016 15.5565 7.03226 15.6492C7.04435 15.7298 7.14919 15.7823 7.27016 15.754C7.3871 15.7258 7.46774 15.6492 7.45564 15.5685C7.44355 15.4919 7.33468 15.4395 7.21774 15.4516ZM9.87097 0C4.27823 0 0 4.24597 0 9.83871C0 14.3105 2.81452 18.1371 6.83468 19.4839C7.35081 19.5766 7.53226 19.2581 7.53226 18.996C7.53226 18.746 7.52016 17.3669 7.52016 16.5202C7.52016 16.5202 4.69758 17.125 4.10484 15.3185C4.10484 15.3185 3.64516 14.1452 2.98387 13.8427C2.98387 13.8427 2.06048 13.2097 3.04839 13.2218C3.04839 13.2218 4.05242 13.3024 4.60484 14.2621C5.4879 15.8185 6.96774 15.371 7.54435 15.1048C7.6371 14.4597 7.89919 14.0121 8.18952 13.746C5.93548 13.496 3.66129 13.1694 3.66129 9.29032C3.66129 8.18145 3.96774 7.625 4.6129 6.91532C4.50806 6.65323 4.16532 5.57258 4.71774 4.17742C5.56048 3.91532 7.5 5.26613 7.5 5.26613C8.30645 5.04032 9.17339 4.92339 10.0323 4.92339C10.8911 4.92339 11.7581 5.04032 12.5645 5.26613C12.5645 5.26613 14.504 3.91129 15.3468 4.17742C15.8992 5.57661 15.5565 6.65323 15.4516 6.91532C16.0968 7.62903 16.4919 8.18548 16.4919 9.29032C16.4919 13.1815 14.1169 13.4919 11.8629 13.746C12.2339 14.0645 12.5484 14.6694 12.5484 15.6169C12.5484 16.9758 12.5363 18.6573 12.5363 18.9879C12.5363 19.25 12.7218 19.5685 13.2339 19.4758C17.2661 18.1371 20 14.3105 20 9.83871C20 4.24597 15.4637 0 9.87097 0ZM3.91935 13.9073C3.86694 13.9476 3.87903 14.0403 3.94758 14.1169C4.0121 14.1815 4.10484 14.2097 4.15726 14.1573C4.20968 14.1169 4.19758 14.0242 4.12903 13.9476C4.06452 13.8831 3.97177 13.8548 3.91935 13.9073ZM3.48387 13.5806C3.45565 13.6331 3.49597 13.6976 3.57661 13.7379C3.64113 13.7782 3.72177 13.7661 3.75 13.7097C3.77823 13.6573 3.7379 13.5927 3.65726 13.5524C3.57661 13.5282 3.5121 13.5403 3.48387 13.5806ZM4.79032 15.0161C4.72581 15.0685 4.75 15.1895 4.84274 15.2661C4.93548 15.3589 5.05242 15.371 5.10484 15.3065C5.15726 15.254 5.13306 15.1331 5.05242 15.0565C4.96371 14.9637 4.84274 14.9516 4.79032 15.0161ZM4.33065 14.4234C4.26613 14.4637 4.26613 14.5685 4.33065 14.6613C4.39516 14.754 4.50403 14.7944 4.55645 14.754C4.62097 14.7016 4.62097 14.5968 4.55645 14.504C4.5 14.4113 4.39516 14.371 4.33065 14.4234Z"/>
</symbol>
<symbol id="house" width="64" height="64" viewBox="0 0 64 64" fill="none">
  <path d="M0.5 16C0.5 7.43959 7.43959 0.5 16 0.5H48C56.5604 0.5 63.5 7.43959 63.5 16V48C63.5 56.5604 56.5604 63.5 48 63.5H16C7.43959 63.5 0.5 56.5604 0.5 48V16Z" stroke-opacity="0.1"/>
  <path d="M48.8874 27.3101V46.9711C48.8874 48.2952 47.7396 49.369 46.3242 49.369H18.1292C16.7138 49.369 15.566 48.2952 15.566 46.9711C15.566 28.3841 15.5643 31.8659 15.5716 27.3101H48.8874Z"/>
  <path d="M48.8875 27.3101V31.8509C48.8875 32.8336 48.0454 33.6477 46.995 33.6517C46.9833 33.6518 17.4788 33.6518 17.4575 33.6517C16.4074 33.6474 15.566 32.8333 15.566 31.8509C15.566 30.5403 15.565 31.4452 15.5716 27.3101H48.8875Z"/>
  <path d="M38.7148 38.6534V49.369H25.7386V38.6534C25.7386 37.3293 26.8864 36.2555 28.3018 36.2555H36.1516C37.5669 36.2555 38.7148 37.3293 38.7148 38.6534Z"/>
  <path d="M50.8098 27.3099C50.8098 29.7091 48.7302 31.6561 46.164 31.6561C43.5984 31.6561 41.5182 29.7101 41.5182 27.3099C41.5182 29.7101 39.4381 31.6561 36.8725 31.6561C34.3069 31.6561 32.2267 29.7101 32.2267 27.3099C32.2267 29.7101 30.1465 31.6561 27.5809 31.6561C25.0153 31.6561 22.9351 29.7101 22.9351 27.3099C22.9311 29.6944 20.8333 31.6561 18.2894 31.6561C15.7485 31.6561 13.6476 29.6968 13.6436 27.3099C13.6436 23.5327 13.6325 23.7651 13.6716 23.5917C13.7101 23.4215 13.4436 24.0241 17.474 15.322C17.6774 14.8836 18.1396 14.5996 18.6498 14.5996H45.8036C46.3138 14.5996 46.776 14.8836 46.9794 15.322C51.0128 24.0305 50.7432 23.4214 50.7818 23.5917C50.8208 23.7647 50.8098 23.5285 50.8098 27.3099Z"/>
  <path d="M50.8098 27.31C50.8098 29.7091 48.7302 31.6561 46.164 31.6561C43.5984 31.6561 41.5182 29.7101 41.5182 27.31C41.5182 29.7101 39.438 31.6561 36.8725 31.6561C34.3069 31.6561 32.2267 29.7101 32.2267 27.31C32.2267 29.7101 30.1465 31.6561 27.5809 31.6561C25.0153 31.6561 22.9351 29.7101 22.9351 27.31C22.9311 29.6943 20.8333 31.6561 18.2893 31.6561C15.7485 31.6561 13.6476 29.6968 13.6436 27.31C13.6372 23.5121 13.6382 23.7399 13.6716 23.5918H50.7818C50.8208 23.7648 50.8098 23.5286 50.8098 27.31Z"/>
  <path d="M45.4574 17.8029C37.3211 16.7553 29.1097 18.099 22.4682 22.7808C21.7206 23.3078 20.8094 23.5918 19.8733 23.5918H13.6717C13.7101 23.4216 13.4436 24.0242 17.474 15.322C17.6775 14.8836 18.1396 14.5996 18.6499 14.5996H45.8037C46.3144 14.5996 46.7763 14.8833 46.9794 15.3217L47.1579 15.707C47.6582 16.787 46.7039 17.9634 45.4574 17.8029Z"/>
  <path d="M49.56 34.325V47C49.56 48.6542 48.1214 50 46.3532 50H18.1336C16.3654 50 14.9268 48.6542 14.9268 47V34.325C14.9268 33.9937 15.214 33.725 15.5682 33.725C15.9224 33.725 16.2096 33.9937 16.2096 34.325V47C16.2096 47.9925 17.0727 48.8 18.1336 48.8H25.1083V38.675C25.1083 37.0208 26.5469 35.675 28.3151 35.675H36.1717C37.9399 35.675 39.3785 37.0208 39.3785 38.675V46.4C39.3785 46.7313 39.0913 47 38.7371 47C38.3829 47 38.0958 46.7313 38.0958 46.4V38.675C38.0958 37.6825 37.2326 36.875 36.1717 36.875H28.3151C27.2542 36.875 26.3911 37.6825 26.3911 38.675V48.8H31.6021V39.35C31.6021 39.0187 31.8892 38.75 32.2434 38.75C32.5976 38.75 32.8848 39.0187 32.8848 39.35V48.8H46.3532C47.4141 48.8 48.2773 47.9925 48.2773 47V34.325C48.2773 33.9937 48.5644 33.725 48.9186 33.725C49.2728 33.725 49.56 33.9936 49.56 34.325ZM17.1716 23.6C17.1716 23.9314 17.4587 24.2 17.8129 24.2C52.7081 24.2 50.9779 24.2584 51.2329 24.0754C51.3661 23.9795 51.4533 23.8411 51.4772 23.683C51.5129 23.4419 51.7431 24.0349 47.2623 14.3614C47.1606 14.142 46.9295 14 46.6738 14H17.8129C17.5573 14 17.326 14.142 17.2244 14.3614L13.0556 23.3614C12.9819 23.5206 13.0027 23.268 13.0027 27.3224C13.0073 30.0513 15.3809 32.2714 18.2939 32.2714C20.2964 32.2714 22.044 31.2222 22.9423 29.6797C24.9486 33.129 30.2333 33.1328 32.2433 29.682C34.2517 33.13 39.5341 33.1308 41.543 29.682C42.4406 31.2232 44.1884 32.2714 46.1928 32.2714C49.1104 32.2714 51.484 30.0509 51.484 27.3214C51.484 26.9901 51.1968 26.7214 50.8426 26.7214C50.4884 26.7214 50.2013 26.9901 50.2013 27.3214C50.2013 29.3892 48.4031 31.0714 46.1928 31.0714C43.9825 31.0714 42.1843 29.3892 42.1843 27.3214C42.1843 26.9901 41.8972 26.7214 41.543 26.7214C41.1888 26.7214 40.9016 26.9901 40.9016 27.3214C40.9016 29.3892 39.1034 31.0714 36.8932 31.0714C34.6829 31.0714 32.8847 29.3892 32.8847 27.3214C32.8847 26.9901 32.5975 26.7214 32.2433 26.7214C31.8891 26.7214 31.602 26.9901 31.602 27.3214C31.602 29.3892 29.8038 31.0714 27.5935 31.0714C25.4324 31.0714 23.585 29.4466 23.585 27.2914C23.585 26.9601 23.2979 26.6914 22.9437 26.6914C22.5895 26.6914 22.3023 26.9601 22.3023 27.2914C22.3023 29.4284 20.4665 31.0714 18.2939 31.0714C16.0871 31.0714 14.2889 29.3887 14.2854 27.3214V23.7244L18.234 15.2H46.2528L49.8658 23H17.8129C17.4587 23 17.1716 23.2686 17.1716 23.6Z"/>
</symbol>
<symbol id="instagram" width="21" height="21" viewBox="0 0 21 21" fill="none">
  <path d="M10.0078 4.87388C7.16852 4.87388 4.87834 7.16406 4.87834 10.0033C4.87834 12.8426 7.16852 15.1328 10.0078 15.1328C12.8471 15.1328 15.1373 12.8426 15.1373 10.0033C15.1373 7.16406 12.8471 4.87388 10.0078 4.87388ZM10.0078 13.3382C8.17298 13.3382 6.67298 11.8426 6.67298 10.0033C6.67298 8.16406 8.16851 6.66853 10.0078 6.66853C11.8471 6.66853 13.3426 8.16406 13.3426 10.0033C13.3426 11.8426 11.8426 13.3382 10.0078 13.3382ZM16.5435 4.66406C16.5435 5.32924 16.0078 5.86049 15.3471 5.86049C14.6819 5.86049 14.1506 5.32478 14.1506 4.66406C14.1506 4.00335 14.6864 3.46763 15.3471 3.46763C16.0078 3.46763 16.5435 4.00335 16.5435 4.66406ZM19.9408 5.87835C19.8649 4.27567 19.4989 2.85603 18.3247 1.68638C17.1551 0.516741 15.7355 0.15067 14.1328 0.0703125C12.481 -0.0234375 7.53012 -0.0234375 5.87834 0.0703125C4.28013 0.146205 2.86049 0.512277 1.68638 1.68192C0.512276 2.85156 0.150669 4.27121 0.0703124 5.87388C-0.0234375 7.52567 -0.0234375 12.4766 0.0703124 14.1283C0.146205 15.731 0.512276 17.1507 1.68638 18.3203C2.86049 19.49 4.27566 19.856 5.87834 19.9364C7.53012 20.0301 12.481 20.0301 14.1328 19.9364C15.7355 19.8605 17.1551 19.4944 18.3247 18.3203C19.4944 17.1507 19.8605 15.731 19.9408 14.1283C20.0346 12.4766 20.0346 7.53013 19.9408 5.87835ZM17.8069 15.9007C17.4587 16.7757 16.7846 17.4498 15.9051 17.8025C14.5881 18.3248 11.4632 18.2042 10.0078 18.2042C8.55244 18.2042 5.42298 18.3203 4.11048 17.8025C3.23549 17.4542 2.56138 16.7801 2.2087 15.9007C1.68638 14.5837 1.80692 11.4587 1.80692 10.0033C1.80692 8.54799 1.69085 5.41853 2.2087 4.10603C2.55692 3.23103 3.23102 2.55692 4.11048 2.20424C5.42745 1.68192 8.55244 1.80246 10.0078 1.80246C11.4632 1.80246 14.5926 1.68638 15.9051 2.20424C16.7801 2.55246 17.4542 3.22656 17.8069 4.10603C18.3292 5.42299 18.2087 8.54799 18.2087 10.0033C18.2087 11.4587 18.3292 14.5882 17.8069 15.9007Z"/>
</symbol>
<symbol id="logo" width="33" height="33" viewBox="0 0 33 33" fill="none">
<path d="M24.1011 16.5C24.1011 16.0945 24.3801 15.7398 24.7776 15.6478C27.7445 14.9559 29.8158 12.3427 29.8158 9.28711C29.8158 5.68162 26.89 2.75 23.2975 2.75C20.2319 2.75 17.5476 4.93303 16.9194 7.93851L24.1011 16.5ZM24.1011 16.5C24.1011 16.9052 24.3798 17.2598 24.7769 17.3521L24.1011 16.5ZM16.9194 25.0615C17.5476 28.067 20.2319 30.25 23.2975 30.25C26.89 30.25 29.8158 27.3184 29.8158 23.7129C29.8158 20.6573 27.7445 18.0441 24.7776 17.3522L16.9194 25.0615ZM16.9194 25.0615C16.8351 24.6567 16.4785 24.3654 16.0639 24.3654C15.6494 24.3654 15.2928 24.6567 15.2085 25.0615C14.5801 28.067 11.8957 30.25 8.83015 30.25C5.23764 30.25 2.31186 27.3184 2.31186 23.7129C2.31186 20.6573 4.38316 18.0441 7.35008 17.3522C7.74759 17.2602 8.0266 16.9055 8.0266 16.5C8.0266 16.0948 7.74793 15.7402 7.35082 15.6479L16.9194 25.0615ZM15.2085 7.93851C14.5801 4.93301 11.8957 2.75 8.83015 2.75C5.23764 2.75 2.31186 5.68162 2.31186 9.28711C2.31186 12.3427 4.38316 14.9559 7.35008 15.6478L15.2085 7.93851ZM15.2085 7.93851C15.2928 8.34326 15.6494 8.63464 16.0639 8.63464C16.4783 8.63464 16.8349 8.34341 16.9193 7.93882L15.2085 7.93851ZM8.83015 32C11.8854 32 14.636 30.2954 16.0639 27.7195C17.4916 30.2954 20.2421 32 23.2975 32C27.8572 32 31.5638 28.2816 31.5638 23.7129C31.5638 20.6523 29.9198 17.9359 27.3694 16.5C29.9198 15.0641 31.5638 12.3477 31.5638 9.28711C31.5638 4.7184 27.8572 1 23.2975 1C20.2421 1 17.4916 2.70458 16.0639 5.2805C14.636 2.70458 11.8854 1 8.83015 1C4.27048 1 0.563843 4.7184 0.563843 9.28711C0.563843 12.3477 2.20788 15.0641 4.75833 16.5C2.20788 17.9359 0.563843 20.6523 0.563843 23.7129C0.563843 28.2816 4.27048 32 8.83015 32Z"/>
</symbol>

<symbol id="twitter" width="20" height="17" viewBox="0 0 20 17" fill="none">
  <path d="M17.9441 4.0482C17.9568 4.22586 17.9568 4.40355 17.9568 4.58121C17.9568 9.99996 13.8325 16.2436 6.29441 16.2436C3.97207 16.2436 1.81473 15.571 0 14.4036C0.329961 14.4416 0.647187 14.4543 0.989844 14.4543C2.90605 14.4543 4.67004 13.8071 6.07867 12.703C4.27664 12.665 2.76648 11.4848 2.24617 9.86039C2.5 9.89844 2.75379 9.92383 3.02031 9.92383C3.38832 9.92383 3.75637 9.87305 4.09898 9.78426C2.22082 9.40351 0.812148 7.75379 0.812148 5.76141V5.71066C1.35781 6.01523 1.99238 6.20559 2.66492 6.23094C1.56086 5.49488 0.837539 4.23855 0.837539 2.81723C0.837539 2.05582 1.04055 1.35785 1.3959 0.748711C3.41367 3.23602 6.44668 4.86035 9.84766 5.03805C9.78422 4.73348 9.74613 4.41625 9.74613 4.09898C9.74613 1.84008 11.5736 0 13.8451 0C15.0253 0 16.0913 0.494922 16.84 1.29441C17.7664 1.11676 18.6547 0.774102 19.4416 0.30457C19.137 1.25637 18.4898 2.05586 17.6395 2.56344C18.4644 2.47465 19.2639 2.24617 19.9999 1.92895C19.4416 2.74109 18.7436 3.46441 17.9441 4.0482Z"/>
</symbol>
</svg>
